<?xml version="1.0" standalone="no"?>
<!DOCTYPE svg PUBLIC "-//W3C//DTD SVG 20010904//EN"
 "http://www.w3.org/TR/2001/REC-SVG-20010904/DTD/svg10.dtd">
<svg version="1.0" xmlns="http://www.w3.org/2000/svg"
 width="700.000000pt" height="700.000000pt" viewBox="0 0 700.000000 700.000000"
 preserveAspectRatio="xMidYMid meet">
<metadata>
Created by potrace 1.14, written by Peter Selinger 2001-2017
</metadata>
<g transform="translate(0.000000,700.000000) scale(0.100000,-0.100000)"
fill="#000000" stroke="none">
<path d="M3205 6989 c-599 -51 -1176 -257 -1674 -596 -684 -466 -1188 -1168
-1405 -1958 -77 -283 -114 -533 -123 -835 -17 -594 107 -1151 372 -1675 93
-184 228 -406 239 -394 2 2 626 1082 1386 2399 760 1317 1390 2403 1399 2414
61 69 170 57 221 -26 11 -18 638 -1103 1393 -2410 754 -1308 1374 -2378 1377
-2378 3 0 31 40 62 89 242 375 422 839 497 1281 37 217 46 331 46 600 0 426
-49 733 -177 1115 -390 1162 -1373 2045 -2568 2304 -332 73 -715 98 -1045 70z"/>
<path d="M2225 1999 c-704 -478 -1281 -873 -1283 -878 -1 -4 37 -48 85 -96
1178 -1180 3036 -1363 4418 -435 197 133 475 366 583 490 l40 45 -1274 870
c-701 479 -1278 871 -1282 872 -4 1 -583 -390 -1287 -868z"/>
</g>
</svg>
